<svg data-v-0dd9719b="" version="1.0" xmlns="http://www.w3.org/2000/svg" xmlns:xlink="http://www.w3.org/1999/xlink" width="100%" height="100%" viewBox="0 0 340.000000 250.000000" preserveAspectRatio="xMidYMid meet" color-interpolation-filters="sRGB" style="margin: auto;"> <rect data-v-0dd9719b="" x="0" y="0" width="100%" height="100%" fill="#020d14" fill-opacity="1" class="background"></rect> <rect data-v-0dd9719b="" x="0" y="0" width="100%" height="100%" fill="url(#watermark)" fill-opacity="1" class="watermarklayer"></rect> <g data-v-0dd9719b="" fill="#ffffff" class="iconlinesvg-g iconlinesvg" transform="translate(85.76142883300781,94.9292049407959)"><g class="tp-name" transform="translate(0,0)"><g transform="translate(0, 0)"><g mask="url(#be2a2c5a-f604-47d4-87ad-62770c39fd8a)"><g class="imagesvg"><g><rect fill="#ffffff" fill-opacity="0" stroke-width="2" x="0" y="0" width="41.19803271279484" height="45.985592776786035" class="image-rect"></rect> <svg x="0" y="0" width="41.19803271279484" height="45.985592776786035" filtersec="colorsb6257634370" class="image-svg-svg primary" style="overflow: visible;"><svg xmlns="http://www.w3.org/2000/svg" viewBox="0 -0.017196238040924072 100.75 112.45752716064453"><title>资源 119</title><path d="M11 19.1V23l-.16 85.74c0 3.29 0 3.29-3.22 3.32a46.76 46.76 0 0 0-4.74.08c-2.26.26-2.81-.65-2.8-2.82C.14 90.9.1 72.49.09 54.07.07 37.16.11 20.24 0 3.33 0 .9.71.14 3.09.27c3.57.19 7.65-1 10.59.42s4.8 5.12 7 7.9q33 41 66 81.93c.87 1.07 1.78 2.1 2.67 3.15l.72-.19v-3.07V3.92c0-3.71 0-3.71 3.84-3.71h6.67c.07 1.26.17 2.23.17 3.21q0 52.86-.06 105.74c0 2.42-.72 3.21-3.11 3.06-3.57-.21-7.65.9-10.59-.5s-4.77-5.16-7-8Q46.75 62.39 13.51 21c-.56-.7-1.17-1.36-1.76-2z" fill="#f3b85f"></path><path d="M77.88 55.88c-3.3-4.13-6.5-8.05-9.58-12.06a4.61 4.61 0 0 1-.66-2.57V2.52C67.59.84 68 .09 69.82.19c2.16.13 4.33.08 6.49 0 1.31 0 2 .34 2 1.81q-.08 26.61-.09 53.21c-.01.1-.08.17-.34.67zM23.34 54.39c3.1 3.87 6.23 7.71 9.23 11.65a4.57 4.57 0 0 1 .52 2.61v39.44c0 2-.64 2.68-2.56 2.53-2.53-.19-5.89.68-7.37-.63-1.29-1.14-.53-4.67-.53-7.15q0-22.22.06-44.43v-3.87zM45.25 81.67c3.66 4.64 7 8.77 10.18 12.94a3 3 0 0 1 .29 1.69c0 4-.07 8 0 12 0 1.78-.47 2.58-2.4 2.48-2.63-.14-5.28 0-8.08 0zM55.19 27.52c-3.22-4-6.45-8-9.64-12.07a2.32 2.32 0 0 1-.44-1.38c0-4.08-.1-8.17 0-12.25a2.27 2.27 0 0 1 1.6-1.5 58.5 58.5 0 0 1 7.49 0c.56 0 1.52.88 1.53 1.35.09 8.55.07 17.1.07 25.65z" fill="#f26359"></path></svg></svg> <!----></g></g><rect v-gra="id" width="53.19803237915039" height="57.985591888427734" transform="translate(-6, -6)" style="pointer-events:none;" fill="url(#nC4ORX0GjWybQSyvfFCW9)"></rect></g></g><g transform="translate(45, 3.6132343445973945)"><g data-gra="path-name" fill="#ffffff" transform="scale(1)"><path d="M15.22 0.38C19.54 0.38 24.25-1.37 26.88-4.82L24.96-6.35C22.94-3.67 18.78-2.24 15.22-2.24C9.64-2.24 4.76-5.91 4.22-12.26L28.58-12.26C29.62-22.83 22.83-27.48 15.22-27.48C7.61-27.48 1.48-21.62 1.48-13.52C1.48-4.93 7.61 0.38 15.22 0.38ZM4.22-14.62C4.82-21.24 9.64-25.02 15.22-25.02C21.73-25.02 26.11-21.30 26.17-14.62Z" transform="translate(-1.4781021897810223, 38.321167883211686)"></path></g></g><g transform="translate(76, 3.6132343445973945)"><g data-gra="path-name" fill="#ffffff" transform="scale(1)"><path d="M16.75-24.91C22.83-24.91 27.81-21.13 27.81-13.52C27.81-6.02 22.83-2.19 16.75-2.19C10.40-2.19 5.69-6.84 5.69-13.58C5.69-20.31 10.51-24.91 16.75-24.91ZM3.01-38.32L3.01 0L5.64 0L5.64-5.97C7.88-1.86 12.32 0.44 16.92 0.44C24.47 0.44 30.44-4.54 30.44-13.52C30.44-22.45 24.42-27.48 16.86-27.48C12.21-27.48 7.83-25.51 5.64-21.13L5.64-38.32Z" transform="translate(-3.010948905109489, 38.321167883211686)"></path></g></g><g transform="translate(107, 3.6132343445973945)"><g data-gra="path-name" fill="#ffffff" transform="scale(1)"><path d="M27.43 0L27.43-27.10L24.74-27.10L24.74-12.04C24.74-6.46 20.86-2.24 15.27-2.19C9.42-2.14 5.64-5.42 5.64-11.55L5.64-27.10L2.96-27.10L2.96-11.50C2.96-4.00 7.94 0.44 15.16 0.44C18.94 0.38 22.72-1.15 24.80-4.87L24.80 0Z" transform="translate(-2.9562043795620445, 38.321167883211686)"></path></g></g><g transform="translate(135, 3.6132343445973945)"><g data-gra="path-name" fill="#ffffff" transform="scale(1)"><path d="M3.01-38.32L3.01 0L5.69 0L5.69-38.32Z" transform="translate(-3.0109489051094895, 38.321167883211686)"></path></g></g><g transform="translate(141, 3.6132343445973945)"><g data-gra="path-name" fill="#ffffff" transform="scale(1)"><path d="M26.33-27.04L26.33-21.13C24.09-25.35 19.65-27.37 15.27-27.37C7.72-27.37 1.53-21.79 1.53-13.52C1.53-5.26 7.72 0.44 15.27 0.44C19.65 0.44 23.70-1.53 26.33-5.75L26.33 0L29.01 0C29.01-9.03 29.01-18.01 29.01-27.04ZM15.27-24.80C30.33-24.80 30.33-2.19 15.27-2.19C9.14-2.19 4.22-6.73 4.22-13.52C4.22-20.31 9.14-24.80 15.27-24.80Z" transform="translate(-1.5328467153284675, 38.321167883211686)"></path></g></g></g> <g data-gra="path-slogan" fill-rule="" class="tp-slogan" fill="url(#1eeee63f-f3f3-496f-bcd1-b1b077fa2feb)" transform="translate(5,51.985591888427734)"><rect x="0" height="1" y="3.580000400543213" width="60.598570823669434"></rect> <rect height="1" y="3.580000400543213" width="60.598570823669434" x="97.87857151031494"></rect> <g transform="translate(63.598570823669434,0)"><g transform="scale(1)"><path d="M1.08-7.87L1.08 0L2.08 0L2.08-3.12L3.49-3.12C3.92-3.12 4.32-3.17 4.67-3.27C5.03-3.37 5.34-3.52 5.59-3.72C5.85-3.92 6.05-4.17 6.19-4.48C6.33-4.78 6.40-5.14 6.40-5.56C6.40-5.99 6.33-6.35 6.19-6.65C6.05-6.94 5.85-7.18 5.60-7.36C5.35-7.54 5.04-7.67 4.68-7.75C4.32-7.83 3.92-7.87 3.49-7.87ZM3.37-3.94L2.08-3.94L2.08-7.07L3.37-7.07C4.05-7.07 4.56-6.96 4.90-6.74C5.23-6.52 5.40-6.12 5.40-5.56C5.40-5.00 5.23-4.59 4.90-4.33C4.57-4.07 4.06-3.94 3.37-3.94ZM7.96-7.87L7.96-3.25C7.96-2.62 8.03-2.09 8.17-1.66C8.32-1.22 8.51-0.87 8.77-0.61C9.02-0.34 9.32-0.15 9.67-0.03C10.01 0.09 10.39 0.14 10.79 0.14C11.19 0.14 11.56 0.09 11.90-0.03C12.25-0.15 12.55-0.34 12.80-0.61C13.05-0.87 13.25-1.22 13.39-1.66C13.54-2.09 13.61-2.62 13.61-3.25L13.61-7.87L12.65-7.87L12.65-3.23C12.65-2.76 12.60-2.36 12.50-2.04C12.41-1.72 12.28-1.46 12.11-1.27C11.94-1.08 11.74-0.94 11.52-0.86C11.30-0.77 11.05-0.73 10.79-0.73C10.53-0.73 10.29-0.77 10.07-0.86C9.84-0.94 9.65-1.08 9.49-1.27C9.32-1.46 9.19-1.72 9.10-2.04C9-2.36 8.95-2.76 8.95-3.23L8.95-7.87ZM15.73-7.87L15.73 0L20.17 0L20.17-0.85L16.73-0.85L16.73-7.87ZM21.32-1.72L20.72-1.02C21.07-0.66 21.48-0.38 21.95-0.17C22.42 0.04 22.93 0.14 23.48 0.14C23.90 0.14 24.27 0.09 24.60-0.03C24.93-0.15 25.21-0.31 25.44-0.51C25.67-0.71 25.85-0.95 25.97-1.22C26.10-1.50 26.16-1.79 26.16-2.10C26.16-2.39 26.12-2.64 26.03-2.86C25.95-3.08 25.84-3.27 25.69-3.44C25.55-3.60 25.38-3.75 25.18-3.87C24.98-3.99 24.76-4.10 24.54-4.20L23.42-4.68C23.26-4.74 23.11-4.81 22.96-4.89C22.80-4.97 22.66-5.05 22.54-5.15C22.41-5.25 22.31-5.37 22.23-5.50C22.15-5.63 22.12-5.80 22.12-5.99C22.12-6.35 22.25-6.63 22.52-6.83C22.79-7.04 23.14-7.14 23.58-7.14C23.95-7.14 24.28-7.07 24.57-6.94C24.86-6.81 25.13-6.63 25.37-6.40L25.91-7.04C25.63-7.33 25.29-7.57 24.89-7.75C24.49-7.93 24.05-8.02 23.58-8.02C23.22-8.02 22.89-7.96 22.59-7.86C22.29-7.76 22.03-7.61 21.81-7.42C21.59-7.23 21.42-7.01 21.29-6.76C21.17-6.50 21.11-6.22 21.11-5.93C21.11-5.64 21.16-5.39 21.25-5.17C21.35-4.95 21.47-4.76 21.62-4.60C21.78-4.44 21.95-4.30 22.14-4.19C22.33-4.08 22.52-3.98 22.70-3.90L23.83-3.41C24.02-3.32 24.19-3.24 24.35-3.16C24.51-3.08 24.65-2.99 24.76-2.89C24.88-2.79 24.97-2.67 25.04-2.53C25.11-2.39 25.14-2.22 25.14-2.02C25.14-1.63 25.00-1.32 24.71-1.09C24.42-0.85 24.02-0.73 23.50-0.73C23.09-0.73 22.69-0.82 22.31-1.00C21.93-1.18 21.60-1.42 21.32-1.72ZM27.71-7.87L27.71 0L32.36 0L32.36-0.85L28.70-0.85L28.70-3.71L31.69-3.71L31.69-4.56L28.70-4.56L28.70-7.03L32.24-7.03L32.24-7.87Z" transform="translate(-1.08, 8.016)"></path></g></g></g></g><defs v-gra="od"><linearGradient x1="0" y1="1" x2="0" y2="0" id="1eeee63f-f3f3-496f-bcd1-b1b077fa2feb"><stop offset="0%" stop-color="#2ebef3"></stop><stop offset="100%" stop-color="#fffc9f"></stop></linearGradient><filter id="42443b3f1de60f6b6fd3b6a9844b4764" filterUnits="objectBoundingBox"><feColorMatrix type="matrix" values="0 0 0 0 0.99609375  0 0 0 0 0.99609375  0 0 0 0 0.99609375  0 0 0 1 0"></feColorMatrix></filter></defs><defs v-gra="id"><filter id="91580b8d-d28c-4e13-a1fd-7950a6f44882" filterUnits="userSpaceOnUse"><feColorMatrix type="matrix" values="0 0 0 0 0.99609375  0 0 0 0 0.99609375  0 0 0 0 0.99609375  0 0 0 1 0"></feColorMatrix></filter><linearGradient x1="0" y1="1" x2="0" y2="0" id="nC4ORX0GjWybQSyvfFCW9"><stop offset="0%" stop-color="#2ebef3"></stop><stop offset="100%" stop-color="#fffc9f"></stop></linearGradient><filter id="42443b3f1de60f6b6fd3b6a9844b4764" filterUnits="objectBoundingBox"><feColorMatrix type="matrix" values="0 0 0 0 0.99609375  0 0 0 0 0.99609375  0 0 0 0 0.99609375  0 0 0 1 0"></feColorMatrix></filter></defs><mask v-gra="im" id="be2a2c5a-f604-47d4-87ad-62770c39fd8a"><g filter="url(#91580b8d-d28c-4e13-a1fd-7950a6f44882)"><g class="imagesvg"><g><rect fill="#ffffff" fill-opacity="0" stroke-width="2" x="0" y="0" width="41.19803271279484" height="45.985592776786035" class="image-rect"></rect> <svg x="0" y="0" width="41.19803271279484" height="45.985592776786035" filtersec="colorsb6257634370" class="image-svg-svg primary" style="overflow: visible;"><svg xmlns="http://www.w3.org/2000/svg" viewBox="0 -0.017196238040924072 100.75 112.45752716064453"><title>资源 119</title><path d="M11 19.1V23l-.16 85.74c0 3.29 0 3.29-3.22 3.32a46.76 46.76 0 0 0-4.74.08c-2.26.26-2.81-.65-2.8-2.82C.14 90.9.1 72.49.09 54.07.07 37.16.11 20.24 0 3.33 0 .9.71.14 3.09.27c3.57.19 7.65-1 10.59.42s4.8 5.12 7 7.9q33 41 66 81.93c.87 1.07 1.78 2.1 2.67 3.15l.72-.19v-3.07V3.92c0-3.71 0-3.71 3.84-3.71h6.67c.07 1.26.17 2.23.17 3.21q0 52.86-.06 105.74c0 2.42-.72 3.21-3.11 3.06-3.57-.21-7.65.9-10.59-.5s-4.77-5.16-7-8Q46.75 62.39 13.51 21c-.56-.7-1.17-1.36-1.76-2z" fill="#f3b85f"></path><path d="M77.88 55.88c-3.3-4.13-6.5-8.05-9.58-12.06a4.61 4.61 0 0 1-.66-2.57V2.52C67.59.84 68 .09 69.82.19c2.16.13 4.33.08 6.49 0 1.31 0 2 .34 2 1.81q-.08 26.61-.09 53.21c-.01.1-.08.17-.34.67zM23.34 54.39c3.1 3.87 6.23 7.71 9.23 11.65a4.57 4.57 0 0 1 .52 2.61v39.44c0 2-.64 2.68-2.56 2.53-2.53-.19-5.89.68-7.37-.63-1.29-1.14-.53-4.67-.53-7.15q0-22.22.06-44.43v-3.87zM45.25 81.67c3.66 4.64 7 8.77 10.18 12.94a3 3 0 0 1 .29 1.69c0 4-.07 8 0 12 0 1.78-.47 2.58-2.4 2.48-2.63-.14-5.28 0-8.08 0zM55.19 27.52c-3.22-4-6.45-8-9.64-12.07a2.32 2.32 0 0 1-.44-1.38c0-4.08-.1-8.17 0-12.25a2.27 2.27 0 0 1 1.6-1.5 58.5 58.5 0 0 1 7.49 0c.56 0 1.52.88 1.53 1.35.09 8.55.07 17.1.07 25.65z" fill="#f26359"></path></svg></svg> <!----></g></g></g></mask></svg>